<svg width="31" height="30" viewBox="0 0 31 30" fill="none" xmlns="http://www.w3.org/2000/svg">
<path fill-rule="evenodd" clip-rule="evenodd" d="M28.9394 21.5778C29.91 19.5917 30.4548 17.3595 30.4548 15C30.4548 9.29832 27.2736 4.33966 22.5893 1.80208C22.5746 1.81842 22.5654 1.82889 22.562 1.83349C22.526 1.83856 22.4835 1.86289 22.4345 1.90649C22.4036 1.94756 22.3791 1.96936 22.3611 1.97189C22.2891 1.98201 22.2299 2.01787 22.1834 2.07948L21.8935 2.36809C21.878 2.38863 21.8561 2.42843 21.8277 2.48751C21.8147 2.52605 21.8005 2.55559 21.785 2.57612C21.7617 2.67121 21.7243 2.73155 21.6728 2.75714C21.6393 2.78021 21.6096 2.83028 21.5837 2.90736C21.532 3.06152 21.4726 3.16167 21.4056 3.2078C21.2922 3.31554 21.2084 3.43749 21.1541 3.57364C21.1412 3.61218 21.1077 3.63525 21.0537 3.64284C21.0176 3.6479 20.9932 3.6697 20.9802 3.70824C20.9262 3.71583 20.8116 3.81457 20.6363 4.00445L20.6131 4.03525C20.5616 4.06084 20.5049 4.11471 20.443 4.19685L20.3269 4.35087C20.278 4.39447 20.2676 4.45102 20.2957 4.5205L20.2725 4.55131C20.1954 4.52542 20.1002 4.56634 19.9868 4.67408C19.9378 4.71768 19.8992 4.76902 19.8707 4.82809L19.8243 4.8897C19.788 5.02333 19.7094 5.117 19.5884 5.17072C19.5985 5.24274 19.5932 5.3353 19.5723 5.44839L19.5572 5.34036C19.5082 5.38396 19.4528 5.44683 19.3909 5.52897C19.3059 5.57763 19.3032 5.62391 19.3829 5.6678C19.3854 5.68581 19.3789 5.70508 19.3634 5.72561C19.3429 5.71014 19.3236 5.70367 19.3056 5.7062C19.3031 5.68819 19.2928 5.68046 19.2748 5.68299C19.0405 5.84445 18.9217 6.04474 18.9186 6.28386C18.8441 6.27598 18.7642 6.36065 18.6789 6.53788C18.6401 6.6535 18.582 6.76265 18.5046 6.86532C18.5122 6.91934 18.498 6.94888 18.462 6.95394C18.4105 6.97953 18.3448 7.03467 18.2649 7.11934C18.2005 7.18347 18.1515 7.22708 18.118 7.25014L18.0446 7.31554C18.0497 7.35155 18.038 7.39909 18.0096 7.45817C17.9812 7.51725 17.9682 7.55579 17.9707 7.57379C17.9603 7.63034 17.9126 7.68294 17.8277 7.7316C17.8122 7.75214 17.78 7.7842 17.731 7.82781C17.7051 7.90489 17.6394 7.96002 17.5339 7.99321C17.4799 8.0008 17.449 8.04187 17.4411 8.11642C17.4332 8.19097 17.3753 8.23584 17.2672 8.25102C17.1927 8.24313 17.1335 8.279 17.0896 8.35861C17.0403 8.53078 16.9642 8.64245 16.8612 8.69365C16.8458 8.71418 16.8251 8.76299 16.7992 8.84007C16.7863 8.87861 16.7591 8.94669 16.7177 9.0443C16.6944 9.13939 16.6672 9.20747 16.6363 9.24854C16.5434 9.37175 16.452 9.43968 16.362 9.45233C16.3414 9.43686 16.29 9.46246 16.2075 9.52912C16.1355 9.53924 16.1046 9.58031 16.1147 9.65233C16.0604 9.78849 16.0087 9.87837 15.9598 9.92197L15.921 10.0376C15.8951 10.1147 15.8666 10.1737 15.8357 10.2148C15.7713 10.279 15.7364 10.3573 15.731 10.4499C15.6742 10.568 15.6303 10.6476 15.5993 10.6887C15.5864 10.7272 15.5231 10.8646 15.4094 11.1009C15.3396 11.2576 15.2378 11.3821 15.1039 11.4744C15.0549 11.518 14.9905 11.5821 14.9106 11.6668C14.8462 11.7309 14.7985 11.7835 14.7675 11.8246C14.752 11.8451 14.7121 11.8875 14.6477 11.9516C14.5832 12.0157 14.5433 12.0581 14.5278 12.0786C14.4789 12.1222 14.4402 12.1736 14.4118 12.2326C14.3884 12.3277 14.3098 12.4214 14.1758 12.5136C14.1244 12.5392 14.0175 12.6277 13.8551 12.7791C13.8191 12.7841 13.8036 12.8046 13.8087 12.8407C13.8059 12.9512 13.7375 13.0526 13.6036 13.1449C13.4747 13.2732 13.3974 13.3758 13.3715 13.4529C13.3456 13.53 13.2657 13.6147 13.1318 13.7069C13.0623 13.7351 13.0043 13.7799 12.9579 13.8415C12.9244 13.8646 12.8665 13.9095 12.784 13.9761C12.6991 14.0248 12.6308 14.0619 12.5793 14.0875C12.5484 14.1286 12.5239 14.1504 12.5059 14.1529C12.4412 14.3456 12.3097 14.5202 12.1113 14.6766L12.0417 14.769C11.9848 14.8871 11.9127 14.9615 11.8252 14.9922L11.7788 15.0538C11.7478 15.0949 11.7104 15.1552 11.6665 15.2348C11.6406 15.3119 11.6289 15.3594 11.6315 15.3774C11.616 15.398 11.5348 15.4737 11.388 15.6045C11.3365 15.6301 11.3055 15.6711 11.2951 15.7277C11.3002 15.7637 11.2293 15.8471 11.0824 15.9779C10.9845 16.0651 10.9381 16.1267 10.9431 16.1627C10.9173 16.2398 10.8888 16.2989 10.8579 16.3399C10.7063 16.3062 10.5763 16.3611 10.468 16.5049C10.45 16.5074 10.4255 16.5292 10.3945 16.5703C10.3225 16.5804 10.289 16.6035 10.2941 16.6395C10.3017 16.6935 10.29 16.741 10.2591 16.7821C10.2281 16.8232 10.1779 16.8578 10.1084 16.8859C10.0569 16.9115 10.0234 16.9346 10.008 16.9551C9.99249 16.9756 9.97828 17.0052 9.96533 17.0437L9.8957 17.1361C9.86222 17.1592 9.83774 17.181 9.82227 17.2015C9.80932 17.2401 9.72168 17.335 9.55935 17.4864C9.40743 17.5811 9.33385 17.7108 9.33862 17.8754C9.32538 18.0425 9.25054 18.1632 9.11409 18.2375C8.96217 18.3322 8.85653 18.4297 8.79716 18.5299L8.58825 18.8071L8.47219 18.9611C8.4283 19.0407 8.39088 19.1011 8.35993 19.1421C8.34193 19.1447 8.32519 19.1562 8.30971 19.1767L8.26329 19.2383C8.30942 19.3053 8.35823 19.326 8.40971 19.3004C8.58723 19.2571 8.84957 19.2294 9.19672 19.2173C9.35876 19.1945 9.60689 19.1964 9.9411 19.2229C9.99511 19.2153 10.0697 19.2231 10.1648 19.2465C10.2573 19.2519 10.3126 19.2533 10.3306 19.2507C10.3846 19.2431 10.4489 19.2433 10.5234 19.2512C10.616 19.2565 10.6803 19.2567 10.7163 19.2516C10.8603 19.2314 10.9696 19.2252 11.0442 19.2331C11.1367 19.2384 11.2653 19.2387 11.4299 19.2339C11.6124 19.2266 11.7487 19.2167 11.8388 19.204C11.9133 19.2119 12.0161 19.225 12.1472 19.2433C12.2758 19.2436 12.3671 19.2399 12.4211 19.2323L12.8532 19.1716L12.9072 19.164L12.9575 19.1294C13.014 19.1398 13.0835 19.1117 13.1659 19.045L13.3393 19.1033C13.4474 19.0881 13.5759 19.0884 13.725 19.1042L13.8601 19.0852L14.1031 19.051C14.1622 19.0794 14.22 19.0989 14.2766 19.1093C14.3331 19.1197 14.3987 19.1288 14.4732 19.1367C14.5452 19.1266 14.6005 19.128 14.6391 19.141C14.6596 19.1564 14.6891 19.1706 14.7277 19.1836L14.8357 19.1684C14.9488 19.1892 15.0721 19.2178 15.2058 19.2541C15.3009 19.2774 15.441 19.2945 15.6261 19.3052C15.6826 19.3156 15.7764 19.33 15.9075 19.3483C16.0541 19.346 16.1647 19.3488 16.2392 19.3567C16.3292 19.3441 16.3935 19.3442 16.4321 19.3572C16.4501 19.3546 16.5143 19.3548 16.6249 19.3576C16.7355 19.3604 16.819 19.367 16.8756 19.3774L17.0452 19.4087C17.0992 19.4011 17.1635 19.4012 17.238 19.4091L17.4001 19.3864C17.5106 19.3892 17.6662 19.3857 17.8668 19.3758C18.0854 19.3635 18.2487 19.3497 18.3567 19.3345L18.5458 19.308C18.6589 19.3288 18.7424 19.3354 18.7964 19.3278L19.1319 19.3633C19.245 19.3841 19.3568 19.3959 19.4674 19.3988C19.5959 19.3991 19.7232 19.3903 19.8493 19.3726C19.9958 19.3704 20.1064 19.3732 20.181 19.3811C20.2375 19.3915 20.3699 19.4188 20.578 19.463C20.614 19.4579 20.6423 19.4631 20.6629 19.4786C20.7349 19.4685 20.8274 19.4738 20.9405 19.4947C20.9945 19.4871 21.1141 19.4886 21.2992 19.4993C21.3068 19.5534 21.2656 19.5867 21.1756 19.5993L20.8515 19.6449L20.7975 19.6525L20.7472 19.6871L20.5582 19.7137C20.5658 19.7677 20.4873 19.7971 20.3227 19.8018L20.0526 19.8398C20.1117 19.8682 20.1978 19.8928 20.3109 19.9137L20.5653 19.9605C20.699 19.9968 20.8031 20.0189 20.8776 20.0268C20.9316 20.0192 21.0049 20.0181 21.0975 20.0234C21.19 20.0288 21.2543 20.0289 21.2903 20.0239L21.4637 20.0821L21.5215 20.1015L21.5756 20.0939C21.6116 20.0889 21.6501 20.1018 21.6912 20.1328C21.7683 20.1587 21.8248 20.1691 21.8608 20.164C21.9508 20.1514 22.0086 20.1708 22.0342 20.2223C22.0753 20.2532 22.1113 20.2482 22.1423 20.2071L22.2119 20.1147C22.2479 20.1096 22.2865 20.1226 22.3275 20.1535C22.4277 20.2129 22.4972 20.1847 22.536 20.0691C22.5669 20.0281 22.5812 19.9985 22.5786 19.9805L22.6056 19.9767L22.6364 19.9999C22.675 20.0129 22.702 20.0091 22.7175 19.9885C22.7355 19.986 22.7599 19.9642 22.7909 19.9231C22.8424 19.8975 22.8771 19.8835 22.8951 19.881C22.8335 19.8345 22.7912 19.7946 22.7681 19.7611C22.8016 19.738 22.8415 19.6957 22.888 19.6341C22.9726 19.714 22.993 19.7937 22.9491 19.8734L22.9529 19.9004C22.976 19.9338 23.0029 19.9943 23.0335 20.0818C23.0667 20.1873 23.0871 20.2671 23.0947 20.3211C23.2362 20.2828 23.3828 20.2806 23.5344 20.3144C23.5524 20.3119 23.5897 20.3158 23.6462 20.3262C23.7208 20.3341 23.7773 20.3445 23.8159 20.3574C23.8929 20.3833 23.9585 20.3925 24.0125 20.3849C24.033 20.4004 24.0613 20.4056 24.0973 20.4005C24.1333 20.3955 24.1616 20.4007 24.1821 20.4161C24.3442 20.3934 24.4006 20.4681 24.3513 20.6402C24.2486 20.5628 24.1536 20.5395 24.0661 20.5701C24.007 20.5417 23.9222 20.5261 23.8116 20.5233C23.7216 20.5359 23.6573 20.5358 23.6188 20.5228C23.5982 20.5074 23.5302 20.4802 23.4145 20.4414L23.3335 20.4528L23.3373 20.4798L23.3989 20.5262C23.4375 20.5392 23.4657 20.5444 23.4837 20.5418C23.6174 20.5781 23.8358 20.63 24.1391 20.6976C24.2752 20.7519 24.4024 20.8075 24.5205 20.8643C24.7979 21.0089 25.0214 21.0969 25.191 21.1281C25.2296 21.141 25.2964 21.1592 25.3915 21.1826C25.5071 21.2214 25.5932 21.246 25.6497 21.2564L26.9448 21.6528C26.9833 21.6657 27.0231 21.6877 27.0642 21.7186C27.2594 21.8013 27.4046 21.8544 27.4996 21.8777C27.6848 21.8884 27.8287 21.9325 27.9313 22.0099C27.9724 22.0408 28.0392 22.059 28.1318 22.0643C28.2243 22.0697 28.2809 22.0801 28.3014 22.0955C28.3381 22.1079 28.4376 22.153 28.6001 22.2308C28.7047 22.0411 28.8053 21.8488 28.9018 21.6541C28.7254 21.637 28.5655 21.6133 28.4221 21.5828C28.3656 21.5724 28.1561 21.5192 27.7938 21.4233C27.7758 21.4258 27.754 21.4013 27.7284 21.3499L27.8364 21.3347C27.857 21.3501 27.8865 21.3644 27.9251 21.3773C27.9816 21.3877 28.0279 21.3904 28.0639 21.3853C28.0819 21.3828 28.1102 21.388 28.1487 21.4009C28.1872 21.4139 28.2155 21.4191 28.2335 21.4166C28.2695 21.4115 28.2978 21.4167 28.3183 21.4322C28.3825 21.4966 28.4493 21.5148 28.5188 21.4866C28.5368 21.4841 28.5651 21.4893 28.6036 21.5023L28.6344 21.5255L28.7154 21.5141C28.772 21.5245 28.8105 21.5374 28.831 21.5529C28.867 21.5479 28.8953 21.5531 28.9159 21.5685C28.9213 21.5726 28.9291 21.5757 28.9394 21.5778ZM28.5957 22.2386C28.5439 22.2331 28.4804 22.2356 28.4052 22.2462C28.4232 22.2437 28.4335 22.2514 28.436 22.2694C28.4385 22.2874 28.4488 22.2952 28.4668 22.2926C28.4855 22.29 28.5153 22.2957 28.5562 22.3098C28.5694 22.2861 28.5826 22.2624 28.5957 22.2386ZM27.2279 24.2958C27.0112 24.1869 26.8943 24.1261 26.8775 24.1134L26.8159 24.0669C26.5871 24.0073 26.442 23.9542 26.3804 23.9078L26.2183 23.9306C26.1927 23.8791 26.1196 23.8159 25.9989 23.7411L25.7833 23.5786L25.7795 23.5516C25.746 23.5747 25.6779 23.5475 25.5753 23.4701L25.3094 23.3423C25.2349 23.3344 25.1565 23.2995 25.0744 23.2376C24.9717 23.1602 24.8676 23.1381 24.7621 23.1713C24.7495 23.0813 24.7149 23.0311 24.6583 23.0207C24.6403 23.0232 24.562 22.9883 24.4233 22.916C24.3257 22.8746 24.2447 22.886 24.1802 22.9501C24.1625 22.8241 24.0996 22.7687 23.9916 22.7839L23.8182 22.7256C23.7566 22.6792 23.709 22.6675 23.6756 22.6906L23.6448 22.6674C23.6012 22.6184 23.5433 22.599 23.4713 22.6091C23.4173 22.6167 23.375 22.5768 23.3443 22.4893C23.3134 22.5303 23.2812 22.5624 23.2477 22.5855C23.2271 22.57 23.2079 22.5635 23.1899 22.5661C23.1513 22.5531 23.1231 22.5479 23.105 22.5504C23.0949 22.4784 23.0436 22.4397 22.951 22.4344L22.8586 22.3647C22.617 22.3436 22.4243 22.2789 22.2805 22.1706L22.1071 22.1123C22.048 22.0839 22.0082 22.062 21.9877 22.0465C21.9491 22.0336 21.9003 22.0129 21.8413 21.9845C21.7847 21.974 21.7372 21.9624 21.6986 21.9494C21.3492 21.8149 21.0807 21.7333 20.8931 21.7046C20.7029 21.6579 20.5693 21.6216 20.4922 21.5957C20.4177 21.5878 20.3136 21.5657 20.1799 21.5294C20.0668 21.5086 19.991 21.4917 19.9525 21.4788C19.8625 21.4914 19.8007 21.5093 19.7672 21.5323C19.7003 21.5785 19.636 21.5783 19.5744 21.5319L19.5706 21.5049L19.5398 21.4817C19.4321 21.3683 19.3062 21.3217 19.1621 21.342C19.1441 21.3445 19.0966 21.3328 19.0195 21.3069C18.9399 21.263 18.7985 21.237 18.5954 21.2288C18.5414 21.2364 18.5041 21.2325 18.4836 21.217C18.2909 21.1523 18.1675 21.1237 18.1135 21.1313C18.0955 21.1338 18.012 21.1272 17.8629 21.1115C17.8268 21.1165 17.8063 21.1011 17.8013 21.065C17.7782 21.0316 17.7281 21.0019 17.651 20.976C17.4429 20.9318 17.2127 20.9274 16.9607 20.9629C16.9247 20.9679 16.8694 20.9665 16.7948 20.9586C16.7383 20.9482 16.6907 20.9365 16.6522 20.9236C16.6342 20.9261 16.5969 20.9222 16.5404 20.9118L16.4323 20.9269L16.3627 21.0193L16.3319 20.9961C16.3114 20.9807 16.2934 20.9832 16.2779 21.0037C16.2469 21.0448 16.2289 21.0473 16.2239 21.0113C16.1853 20.9984 16.1211 20.9982 16.031 21.0109L15.869 21.0337C15.8304 21.0207 15.7662 21.0206 15.6761 21.0332C15.6041 21.0433 15.5488 21.0419 15.5103 21.029C15.3663 21.0492 15.257 21.0554 15.1824 21.0475C15.1464 21.0526 15.1117 21.0666 15.0782 21.0897C15.0627 21.1102 15.046 21.1218 15.028 21.1243L14.8545 21.0661C14.834 21.0506 14.7877 21.0479 14.7157 21.058C14.6797 21.0631 14.6539 21.0759 14.6385 21.0964C14.5921 21.158 14.5406 21.1836 14.484 21.1732C14.466 21.1757 14.4415 21.1975 14.4106 21.2386C14.385 21.1871 14.2886 21.1548 14.1215 21.1415C13.9184 21.1334 13.7409 21.1767 13.589 21.2715L13.4539 21.2904C13.279 21.3518 13.1555 21.3875 13.0834 21.3976L13.0564 21.4014C13.059 21.4194 13.0512 21.4297 13.0332 21.4322C12.9947 21.4193 12.8262 21.4613 12.5277 21.5583L12.2306 21.6001C12.2101 21.5846 12.1921 21.5871 12.1766 21.6077C12.1611 21.6282 12.0813 21.6486 11.9373 21.6688L11.4356 21.822C11.0057 22.0293 10.765 22.1457 10.7135 22.1713C10.662 22.1969 10.5835 22.2263 10.478 22.2595C10.3725 22.2927 10.3108 22.3105 10.2928 22.3131C10.2568 22.3181 10.2053 22.3437 10.1383 22.3899C10.0714 22.436 10.0199 22.4616 9.98388 22.4666C9.92986 22.4742 9.8539 22.5216 9.75599 22.6088C9.72504 22.6499 9.69156 22.673 9.65555 22.678C9.54499 22.6752 9.45229 22.7341 9.37745 22.8548C9.3029 22.8469 9.21667 22.8866 9.11877 22.9738C9.04139 23.0765 8.93969 23.1367 8.81366 23.1544C8.79565 23.1569 8.76991 23.1697 8.73643 23.1928C8.70295 23.2158 8.66694 23.2209 8.6284 23.208C8.59239 23.213 8.57692 23.2336 8.58198 23.2696C8.53808 23.3492 8.47113 23.3953 8.3811 23.408C8.34256 23.395 8.25507 23.4257 8.11862 23.4999C8.05166 23.5461 8.00018 23.5717 7.96417 23.5767C7.91015 23.5843 7.86641 23.5996 7.83293 23.6227C7.78397 23.6663 7.70675 23.7047 7.60125 23.7379L7.36957 23.8531C7.24859 23.9068 7.19696 23.9967 7.21468 24.1227L7.07964 24.1417C6.98962 24.1543 6.92266 24.2005 6.87876 24.2801C6.86835 24.3366 6.80266 24.3918 6.68168 24.4455C6.64567 24.4505 6.57239 24.4517 6.46183 24.4488L6.21876 24.483L6.16855 24.5176C6.15813 24.5741 6.10397 24.646 6.00606 24.7332C5.89044 24.6944 5.82363 24.6762 5.80563 24.6788C5.77215 24.7018 5.73993 24.7339 5.70898 24.775C5.68056 24.834 5.65735 24.8649 5.63935 24.8674C5.55721 24.8055 5.49166 24.7963 5.44271 24.8399L5.36168 24.8513C5.16363 24.8792 5.01818 24.9547 4.92533 25.0779C4.87132 25.0855 4.83657 25.0995 4.8211 25.1201C4.80816 25.1586 4.80295 25.1869 4.80548 25.2049C4.7464 25.1765 4.68592 25.2033 4.62402 25.2855C4.60789 25.3008 4.59194 25.3148 4.57618 25.3275C7.30928 28.2055 11.1725 30 15.4548 30C20.2281 30 24.4807 27.7704 27.2279 24.2958ZM3.19288 23.6419C1.46803 21.1991 0.454773 18.2179 0.454773 15C0.454773 6.71573 7.1705 0 15.4548 0C17.2766 0 19.0226 0.3248 20.638 0.919653C20.5505 0.932305 20.4815 0.951175 20.431 0.976269C20.377 0.98386 20.3063 1.00298 20.2188 1.03364L20.0103 1.11802L19.8212 1.14459C19.7492 1.15471 19.6797 1.18284 19.6128 1.22897C19.5613 1.25457 19.5021 1.29043 19.4351 1.33656C19.3656 1.36469 19.3129 1.38128 19.2769 1.38634C19.1379 1.44259 19.0427 1.48352 18.9912 1.50912C18.5973 1.71135 18.3836 1.82401 18.3502 1.84707C18.0052 2.00571 17.8148 2.08756 17.7788 2.09262C17.7093 2.12075 17.6038 2.15393 17.4623 2.19218C17.3388 2.2279 17.2423 2.25982 17.1728 2.28795C17.0828 2.3006 16.7778 2.4169 16.2579 2.63685C16.2424 2.65739 16.2167 2.67019 16.1807 2.67525C16.1447 2.68031 16.1189 2.69311 16.1034 2.71364C16.0854 2.71617 16.0429 2.7405 15.976 2.78664C15.8756 2.85583 15.8163 2.8917 15.7983 2.89423C15.7648 2.91729 15.6709 2.96722 15.5164 3.04401C15.3594 3.10279 15.2475 3.15525 15.1805 3.20138C15.1085 3.2115 15.0647 3.22683 15.0493 3.24737L14.4935 3.4081C14.3545 3.46435 14.249 3.49754 14.177 3.50766C14.002 3.56897 13.872 3.62396 13.7871 3.67262C13.7511 3.67768 13.7073 3.69301 13.6558 3.71861C13.6044 3.7442 13.5619 3.76853 13.5284 3.7916L13.0537 3.94094C12.9482 3.97413 12.7924 4.04192 12.5865 4.1443L11.8801 4.40883C11.8286 4.43442 11.5249 4.55973 10.969 4.78474C10.83 4.84099 10.7348 4.88192 10.6833 4.90751C10.6138 4.93564 10.4838 4.99063 10.2934 5.07248C10.1184 5.13379 9.97939 5.19004 9.87642 5.24124C9.82494 5.26683 9.76572 5.3027 9.69876 5.34883C9.47482 5.45374 9.28309 5.52659 9.12358 5.56737C9.05662 5.6135 8.91764 5.66975 8.70664 5.73613C8.50859 5.76396 8.32586 5.83554 8.15847 5.95087C8.14046 5.9534 8.11472 5.9662 8.08124 5.98927L8.02723 5.99686C8.01175 6.01739 7.96801 6.03272 7.89599 6.04284C7.84197 6.05044 7.80723 6.0645 7.79175 6.08503C7.48285 6.23861 7.2499 6.34479 7.09292 6.40358C7.02596 6.44971 6.98348 6.47404 6.96547 6.47657C6.87292 6.47121 6.73521 6.53647 6.55234 6.67233C6.61647 6.73676 6.61759 6.81005 6.55569 6.89219C6.66119 6.859 6.728 6.87715 6.75613 6.94664L6.81774 6.99306C7.02815 7.18382 7.17696 7.32815 7.26416 7.42606C7.4335 7.58586 7.55151 7.70698 7.61818 7.78941C7.74645 7.91827 7.81944 8.04572 7.83715 8.17175C7.88582 8.25671 7.91915 8.29793 7.93715 8.2954L8.18358 8.48109C8.26825 8.561 8.38893 8.63584 8.54562 8.70562L8.63803 8.77525C8.83832 8.89399 9.01823 8.93297 9.17774 8.89219C9.19574 8.88966 9.22402 8.89487 9.26256 8.90781L9.34358 8.89642C9.35905 8.87589 9.36552 8.85662 9.36299 8.83861C9.36046 8.82061 9.36694 8.80134 9.38241 8.7808C9.43136 8.7372 9.47005 8.68586 9.49847 8.62679C9.50888 8.57024 9.54489 8.56518 9.6065 8.6116C9.62956 8.64508 9.6591 8.65929 9.69511 8.65423L9.67613 8.5192C9.72762 8.4936 9.7919 8.49375 9.86898 8.51963C9.923 8.51204 9.94874 8.49924 9.94621 8.48124C9.96168 8.4607 10.0068 8.39009 10.0817 8.26941C10.1076 8.19233 10.1578 8.15774 10.2323 8.16562C10.3792 8.03482 10.4616 7.96815 10.4796 7.96562L10.5066 7.96182C10.5041 7.94382 10.5119 7.93355 10.5299 7.93102C10.5763 7.86941 10.6355 7.83355 10.7075 7.82343C10.7255 7.8209 10.7603 7.80683 10.8118 7.78124C10.8787 7.73511 10.9237 7.72878 10.9468 7.76226L10.9932 7.70066C11.0087 7.68012 11.0756 7.63399 11.1941 7.56226L11.2443 7.52766C11.2598 7.50713 11.3512 7.43919 11.5186 7.32387C11.6885 7.22654 11.807 7.15481 11.8739 7.10868L12.0246 7.00489C12.0426 7.00236 12.0671 6.98056 12.098 6.93949L12.1326 6.98971C12.1377 7.02571 12.1582 7.04119 12.1942 7.03613C12.2302 7.03107 12.2869 6.9772 12.3643 6.87452L12.3871 7.03657C12.4127 7.08805 12.4267 7.1228 12.4293 7.1408C12.4192 7.06878 12.4206 7.0135 12.4335 6.97496C12.4209 6.88494 12.4583 6.82459 12.5458 6.79394L12.6538 6.77876C12.9188 6.70479 13.0848 6.64474 13.1518 6.59861C13.1852 6.57554 13.2367 6.54995 13.3062 6.52182C13.3912 6.47316 13.4504 6.4373 13.4839 6.41423C13.5019 6.4117 13.5276 6.3989 13.5611 6.37584C13.5946 6.35277 13.6203 6.33997 13.6383 6.33744C13.7722 6.24518 13.8752 6.19399 13.9472 6.18387L14.0283 6.17248C14.0617 6.14941 14.0875 6.13661 14.1055 6.13408C14.1544 6.09048 14.2097 6.09189 14.2713 6.13832L14.3253 6.13073C14.3613 6.12567 14.3806 6.13214 14.3831 6.15014C14.44 6.03199 14.4774 5.97165 14.4954 5.96912C14.6704 5.90781 14.7939 5.87209 14.8659 5.86197C14.8814 5.84143 14.9161 5.82737 14.9702 5.81978C15.0526 5.75311 15.1478 5.71218 15.2558 5.697L15.6069 5.64766C15.6688 5.56552 15.7306 5.54766 15.7922 5.59408C15.7663 5.67116 15.7379 5.73024 15.7069 5.77131C15.645 5.85345 15.5883 5.90732 15.5369 5.93292C15.4519 5.98158 15.4132 6.03292 15.4208 6.08693C15.4309 6.15895 15.4102 6.20776 15.3588 6.23335C15.3613 6.25136 15.3471 6.2809 15.3161 6.32197L15.2233 6.44518C15.1743 6.48878 15.1421 6.52085 15.1266 6.54138C15.0082 6.61311 14.8948 6.72085 14.7865 6.86459C14.7401 6.9262 14.6614 7.01988 14.5506 7.14562C14.4552 7.25082 14.3843 7.33423 14.3379 7.39584C14.276 7.47798 14.1857 7.61919 14.0669 7.81949C13.8967 8.04537 13.8051 8.17759 13.7922 8.21613L13.6993 8.33934C13.6065 8.46255 13.5549 8.55243 13.5445 8.60898C13.5211 8.70406 13.4709 8.73866 13.3938 8.71277C13.3963 8.73078 13.4079 8.74752 13.4284 8.76299L13.4322 8.79C13.3987 8.81306 13.355 8.82839 13.301 8.83598C13.2956 8.92854 13.2466 8.97214 13.1541 8.96679L13.1579 8.99379L13.2465 9.03642C13.213 9.05949 13.1731 9.10182 13.1266 9.16343C13.0802 9.22503 13.0287 9.25063 12.9722 9.24022C12.9747 9.25822 12.9695 9.28649 12.9566 9.32503C12.9591 9.34304 12.9526 9.36231 12.9372 9.38284C12.8134 9.54713 12.7115 9.6716 12.6316 9.75628C12.5827 9.79988 12.5143 9.90129 12.4265 10.0605L12.3801 10.1221C12.3646 10.1427 12.2898 10.2633 12.1556 10.4842C12.1246 10.5252 12.0794 10.5958 12.0201 10.696C11.9762 10.7756 11.9388 10.8359 11.9078 10.877C11.9103 10.895 11.9026 10.9053 11.8846 10.9078C11.7608 11.0721 11.659 11.1966 11.5791 11.2812C11.4811 11.3684 11.409 11.4428 11.3626 11.5045C11.2981 11.5686 11.204 11.6828 11.0802 11.8471C11.0493 11.8882 11.0093 11.9305 10.9604 11.9741L10.8907 12.0665C10.7979 12.1897 10.7373 12.2809 10.7088 12.3399C10.6703 12.327 10.633 12.323 10.597 12.3281L10.4577 12.5129C10.4757 12.5104 10.5015 12.4976 10.535 12.4745C10.553 12.472 10.5697 12.4605 10.5852 12.4399C10.5283 12.5581 10.4665 12.6402 10.3995 12.6864L10.3379 12.6399C10.3354 12.6219 10.3226 12.5962 10.2995 12.5627C10.2711 12.6218 10.2671 12.6591 10.2877 12.6745C10.3133 12.726 10.3041 12.7916 10.2602 12.8712C10.2318 12.9302 10.2189 12.9688 10.2214 12.9868C10.1854 12.9919 10.1364 13.0355 10.0745 13.1176C10.0306 13.1972 9.99069 13.2395 9.95468 13.2446C9.91867 13.2497 9.90319 13.2702 9.90825 13.3062L9.82723 13.3176C9.78869 13.3046 9.76042 13.2994 9.74241 13.302C9.78854 13.3689 9.75112 13.4293 9.63015 13.483C9.67122 13.5139 9.69302 13.5384 9.69555 13.5564L9.64913 13.618C9.55375 13.7232 9.46864 13.8362 9.3938 13.9569C9.37832 13.9774 9.37185 13.9967 9.37438 14.0147C9.37691 14.0327 9.36918 14.0429 9.35117 14.0455L9.27015 14.0569C9.22879 14.1545 9.20037 14.2136 9.18489 14.2341C9.17195 14.2726 9.15 14.3124 9.11905 14.3535L9.003 14.5075C8.95404 14.5511 8.92183 14.5832 8.90635 14.6037L8.85993 14.6653C8.84699 14.7039 8.81604 14.7449 8.76708 14.7885C8.73613 14.8296 8.71419 14.8694 8.70124 14.908C8.67283 14.967 8.61993 15.0479 8.54256 15.1506C8.51161 15.1917 8.45224 15.2918 8.36446 15.451C8.29468 15.6077 8.22757 15.7181 8.16314 15.7823C8.1682 15.8183 8.16173 15.8375 8.14373 15.8401C8.15638 15.9301 8.11769 15.9814 8.02767 15.9941C7.93764 16.0067 7.89896 16.0581 7.91161 16.1481C7.92173 16.2201 7.90358 16.2869 7.85716 16.3485L7.7411 16.5026C7.69721 16.5822 7.65978 16.6425 7.62884 16.6836C7.51545 16.7913 7.45356 16.8735 7.44314 16.93C7.44567 16.948 7.43794 16.9583 7.41993 16.9608L7.37351 17.0224L7.28066 17.1456C7.2137 17.1918 7.18402 17.2418 7.19161 17.2958L7.14519 17.3574C7.11171 17.3805 7.07429 17.4409 7.03292 17.5385C6.97356 17.6386 6.91813 17.7015 6.86665 17.7271C6.84864 17.7296 6.8409 17.7399 6.84343 17.7579C6.69881 18.0353 6.58134 18.2446 6.49103 18.3858C6.37482 18.6041 6.30251 18.7428 6.27409 18.8018C6.18124 18.925 6.13088 19.0239 6.123 19.0985C6.04533 19.3297 5.95628 19.4799 5.85584 19.5491L5.78621 19.6415L5.71657 19.7339C5.66762 19.7775 5.64694 19.8264 5.65453 19.8804C5.67224 20.0064 5.61414 20.1156 5.48022 20.2078C5.43127 20.2514 5.39638 20.3298 5.37555 20.4429C5.38314 20.4969 5.36373 20.5547 5.3173 20.6163L5.20168 20.5775C5.22981 20.6469 5.20266 20.715 5.12022 20.7817C5.08674 20.8048 5.04679 20.8471 5.00037 20.9087C4.95142 20.9523 4.9192 20.9844 4.90373 21.0049C4.85224 21.0305 4.81482 21.0908 4.79146 21.1859C4.74757 21.2655 4.70888 21.3169 4.67541 21.3399L4.683 21.3939C4.64923 21.5456 4.6156 21.6329 4.58212 21.656C4.60013 21.6535 4.62966 21.6677 4.67073 21.6986C4.65244 21.8297 4.59701 21.8926 4.50446 21.8872L4.51964 21.9953C4.50416 22.0158 4.46168 22.0401 4.39219 22.0683C4.32523 22.1144 4.28655 22.1657 4.27614 22.2223L4.41117 22.2033C4.38022 22.2444 4.32086 22.3445 4.23307 22.5037L4.22168 22.4227L4.21789 22.3957L4.18708 22.3725C4.16908 22.375 4.15234 22.3866 4.13687 22.4071C4.08003 22.5252 4.07341 22.6088 4.11701 22.6577C4.13502 22.6552 4.12854 22.6745 4.0976 22.7156L4.07059 22.7194L4.05541 22.6113C3.95497 22.6805 3.87506 22.7652 3.8157 22.8653C3.77433 22.963 3.71244 23.0451 3.63 23.1118C3.52957 23.181 3.43419 23.2862 3.34387 23.4274C3.32587 23.4299 3.3194 23.4492 3.32446 23.4852L3.30124 23.516C3.26932 23.5512 3.2332 23.5932 3.19288 23.6419ZM28.4014 22.2192C28.3553 22.1522 28.2872 22.1251 28.1972 22.1377C28.2433 22.2047 28.3114 22.2319 28.4014 22.2192ZM20.5198 19.6364C20.4632 19.626 20.4504 19.6003 20.4814 19.5592L20.6704 19.5326C20.6316 19.6482 20.5814 19.6828 20.5198 19.6364ZM20.1611 19.6318C20.2821 19.578 20.3528 19.5589 20.3734 19.5744C20.381 19.6284 20.3475 19.6515 20.2729 19.6436C20.2164 19.6332 20.1791 19.6292 20.1611 19.6318ZM9.91964 8.29219C9.87068 8.33579 9.84874 8.37559 9.8538 8.4116L9.74577 8.42679C9.68922 8.41637 9.62747 8.43423 9.56051 8.48036C9.52703 8.50343 9.48582 8.53676 9.43686 8.58036L9.38664 8.61496C9.35316 8.63803 9.31716 8.64309 9.27861 8.63014C9.25555 8.59666 9.24922 8.55165 9.25964 8.49511C9.29818 8.50805 9.40115 8.45686 9.56854 8.34153C9.58655 8.339 9.61102 8.3172 9.64197 8.27613C9.67292 8.23506 9.6974 8.21326 9.7154 8.21073C9.80543 8.19808 9.86718 8.18022 9.90066 8.15715L10.0087 8.14197C10.0163 8.19598 9.9866 8.24606 9.91964 8.29219ZM10.6729 7.77321C10.7629 7.76056 10.8029 7.71822 10.7928 7.6462C10.7388 7.65379 10.6988 7.69613 10.6729 7.77321ZM15.0204 10.8802L15.0436 10.8494C15.0616 10.8469 15.0809 10.8534 15.1014 10.8688L15.082 10.9266L15.0204 10.8802ZM14.4907 11.4228C14.5552 11.3587 14.5746 11.3009 14.549 11.2494C14.6415 11.2548 14.6749 11.296 14.649 11.3731C14.6386 11.4296 14.5549 11.4873 14.3979 11.5461C14.3928 11.51 14.4238 11.469 14.4907 11.4228ZM14.2468 11.8427C14.1748 11.8528 14.1438 11.8939 14.1539 11.9659L14.2468 11.8427ZM26.1055 20.972C26.0309 20.9642 25.9744 20.9537 25.9359 20.9408L25.67 20.8129C25.4388 20.7353 25.2781 20.7028 25.1881 20.7154L25.1573 20.6922C25.0982 20.6638 24.8695 20.6041 24.4712 20.5132L24.4826 20.5942C24.5082 20.6457 24.5312 20.6792 24.5518 20.6947L24.7408 20.6681C24.9079 20.6813 25.0133 20.7124 25.0569 20.7614C25.0594 20.7794 25.0787 20.7859 25.1147 20.7808C25.1327 20.7783 25.265 20.8056 25.5118 20.8627L25.951 21.0488C26.0126 21.0953 26.1425 21.1046 26.3405 21.0767C26.3585 21.0742 26.3663 21.0639 26.3637 21.0459C26.3612 21.0279 26.3419 21.0214 26.3059 21.0265C26.2674 21.0136 26.2006 20.9954 26.1055 20.972ZM27.0693 21.1671L27.0461 21.1979C27.0691 21.2314 27.0897 21.2468 27.1077 21.2443C27.1797 21.2342 27.217 21.2381 27.2195 21.2561C27.2631 21.3051 27.3505 21.3387 27.4815 21.357L27.6474 21.3612L27.7246 21.3228L27.6436 21.3342L27.6128 21.311C27.5948 21.3136 27.5665 21.3083 27.528 21.2954C27.4689 21.267 27.316 21.2242 27.0693 21.1671ZM26.4253 21.0923C26.5691 21.2007 26.74 21.2409 26.938 21.2131C26.8019 21.1588 26.7183 21.1521 26.6874 21.1932C26.6747 21.1032 26.6324 21.0632 26.5604 21.0734C26.5424 21.0759 26.5141 21.0707 26.4756 21.0577C26.437 21.0448 26.4203 21.0563 26.4253 21.0923ZM23.2192 19.8354C23.1523 19.8815 23.1316 19.9303 23.1572 19.9818C23.2936 19.9076 23.3696 19.8602 23.385 19.8396C23.3209 19.7752 23.2656 19.7738 23.2192 19.8354ZM23.2164 22.7551L23.224 22.8091L23.1312 22.9323C23.1697 22.9453 23.225 22.9467 23.297 22.9366C23.2818 22.8285 23.2795 22.7463 23.2899 22.6897L23.2359 22.6973C23.2384 22.7153 23.2319 22.7346 23.2164 22.7551ZM23.262 23.0792C23.2595 23.0612 23.2479 23.0445 23.2274 23.029C23.1374 23.0416 23.1154 23.0814 23.1615 23.1484C23.1871 23.1999 23.2334 23.2026 23.3004 23.1564C23.2978 23.1384 23.285 23.1127 23.262 23.0792ZM20.218 4.75174C20.267 4.70814 20.2607 4.66313 20.1991 4.61671C20.1861 4.65525 20.1642 4.69506 20.1332 4.73613L20.0944 4.85175C20.0454 4.89535 20.0415 4.93262 20.0826 4.96357L20.075 4.90955C20.0904 4.88902 20.0969 4.86975 20.0944 4.85175C20.1613 4.80561 20.2026 4.77228 20.218 4.75174ZM26.858 19.0761C26.7911 19.1223 26.7358 19.1209 26.6922 19.0719C26.7412 19.0283 26.7964 19.0297 26.858 19.0761ZM17.6198 21.1456C17.5759 21.2252 17.5141 21.2431 17.4345 21.1992C17.5066 21.1891 17.5683 21.1712 17.6198 21.1456ZM21.9154 2.91583C21.8074 2.93101 21.7818 2.87953 21.8386 2.76138C21.8437 2.79739 21.8693 2.84887 21.9154 2.91583ZM21.6681 3.11583L21.6293 3.23145L21.6833 3.22386L21.6757 3.16985C21.6912 3.14931 21.6976 3.13004 21.6951 3.11204L21.6681 3.11583ZM26.3567 19.0364C26.3438 19.075 26.2808 19.0838 26.1677 19.063L26.3567 19.0364ZM23.0201 19.2024C22.9635 19.192 22.9391 19.2138 22.9467 19.2678C22.9852 19.2808 23.0122 19.277 23.0277 19.2564C23.0431 19.2359 23.0406 19.2179 23.0201 19.2024ZM23.2729 23.3531C23.2653 23.2991 23.2796 23.2695 23.3156 23.2645C23.3181 23.2825 23.3039 23.312 23.2729 23.3531ZM10.1779 8.36606C10.2215 8.41501 10.2588 8.41895 10.2897 8.37788L10.2551 8.32766C10.2371 8.33019 10.2204 8.34173 10.2049 8.36226L10.1779 8.36606ZM21.2545 3.50445L21.2313 3.53525C21.2519 3.55072 21.2711 3.55719 21.2891 3.55466L21.3123 3.52386L21.2853 3.52766C21.2828 3.50965 21.2725 3.50192 21.2545 3.50445ZM21.0764 3.80488C21.0685 3.87943 21.0338 3.8935 20.9722 3.84707C21.0082 3.84201 21.0429 3.82795 21.0764 3.80488ZM20.6937 4.21671L20.7207 4.21291C20.7181 4.19491 20.7323 4.16537 20.7633 4.1243C20.7453 4.12683 20.735 4.11909 20.7325 4.10109C20.7015 4.14216 20.6886 4.1807 20.6937 4.21671ZM14.0002 18.5147C14.0182 18.5121 14.0285 18.5199 14.031 18.5379L14.0775 18.4763C14.0569 18.4608 14.0376 18.4543 14.0196 18.4569C14.0222 18.4749 14.0157 18.4941 14.0002 18.5147ZM15.3242 6.18313L15.3128 6.10211L15.2858 6.10591L15.2972 6.18693L15.3242 6.18313ZM26.5302 19.0947L26.5842 19.0871L26.5804 19.0601L26.5264 19.0677L26.5302 19.0947ZM27.6067 18.9158C27.6247 18.9133 27.6414 18.9018 27.6569 18.8812L27.6029 18.8888C27.5849 18.8914 27.5771 18.9016 27.5796 18.9196L27.6067 18.9158ZM17.2899 10.1757L17.2937 10.2027L17.3207 10.1989C17.3387 10.1964 17.3554 10.1848 17.3709 10.1643L17.3363 10.1141C17.3388 10.1321 17.3311 10.1424 17.3131 10.1449C17.3156 10.1629 17.3079 10.1732 17.2899 10.1757Z" fill="#FCD500"/>
</svg>
