<?xml version="1.0" standalone="no"?>
<!DOCTYPE svg PUBLIC "-//W3C//DTD SVG 20010904//EN"
 "http://www.w3.org/TR/2001/REC-SVG-20010904/DTD/svg10.dtd">
<svg version="1.0" xmlns="http://www.w3.org/2000/svg"
 width="992.000000pt" height="992.000000pt" viewBox="0 0 992.000000 992.000000"
 preserveAspectRatio="xMidYMid meet">
<metadata>
Created by potrace 1.14, written by Peter Selinger 2001-2017
</metadata>
<g transform="translate(0.000000,992.000000) scale(0.100000,-0.100000)"
fill="#000000" stroke="none">
<path d="M4678 9755 c-2 -1 -43 -5 -93 -9 -49 -4 -103 -9 -120 -10 -16 -2 -56
-7 -87 -10 -32 -4 -78 -9 -104 -11 -25 -3 -49 -7 -53 -9 -4 -3 -27 -7 -51 -10
-25 -3 -56 -8 -70 -11 -22 -5 -56 -11 -115 -20 -41 -7 -232 -54 -305 -75 -41
-12 -82 -23 -90 -24 -9 -1 -20 -4 -25 -8 -9 -4 -22 -8 -80 -24 -40 -10 -273
-95 -330 -119 -16 -7 -59 -25 -95 -40 -105 -44 -305 -139 -308 -147 -2 -5 -10
-8 -18 -8 -8 0 -14 -4 -14 -8 0 -5 -6 -9 -13 -9 -7 0 -45 -18 -84 -41 -39 -23
-76 -42 -82 -42 -6 0 -11 -4 -11 -10 0 -5 -7 -10 -15 -10 -8 0 -15 -4 -15 -10
0 -5 -5 -10 -11 -10 -6 0 -56 -29 -110 -65 -55 -36 -104 -65 -109 -65 -6 0
-10 -4 -10 -9 0 -5 -8 -12 -18 -15 -10 -4 -28 -15 -39 -26 -12 -11 -34 -27
-50 -37 -57 -37 -173 -126 -173 -134 0 -4 -8 -10 -17 -13 -10 -4 -32 -19 -49
-34 -17 -15 -46 -39 -65 -55 -152 -124 -465 -437 -569 -569 -8 -10 -28 -33
-43 -51 -16 -18 -67 -84 -114 -147 -47 -63 -99 -132 -115 -152 -15 -20 -28
-42 -28 -47 0 -6 -4 -11 -10 -11 -5 0 -10 -7 -10 -15 0 -8 -4 -15 -10 -15 -5
0 -10 -7 -10 -15 0 -8 -4 -15 -10 -15 -5 0 -10 -7 -10 -15 0 -8 -3 -15 -8 -15
-4 0 -12 -9 -17 -19 -18 -34 -78 -136 -85 -141 -3 -3 -11 -16 -17 -30 -7 -14
-27 -50 -44 -80 -34 -58 -189 -365 -189 -373 0 -2 -12 -31 -27 -63 -14 -33
-28 -67 -30 -77 -1 -10 -10 -29 -19 -42 -9 -14 -13 -25 -9 -25 4 0 3 -6 -3
-12 -8 -11 -117 -317 -121 -340 0 -5 -2 -10 -2 -13 -1 -3 -3 -9 -4 -15 -1 -5
-4 -12 -5 -15 -1 -3 -4 -9 -5 -15 -1 -5 -3 -11 -5 -12 -1 -2 -3 -10 -5 -18 -2
-8 -19 -78 -38 -155 -32 -125 -42 -172 -52 -240 -2 -11 -4 -20 -5 -20 -3 0 -9
-38 -16 -90 -4 -27 -8 -53 -10 -56 -2 -3 -6 -32 -10 -64 -3 -32 -8 -68 -10
-79 -2 -12 -7 -50 -10 -86 -3 -36 -7 -71 -10 -79 -21 -63 -21 -682 0 -861 3
-19 7 -67 10 -106 3 -38 7 -77 10 -85 4 -12 12 -67 21 -154 2 -16 11 -66 20
-110 9 -44 18 -89 20 -100 2 -11 4 -20 5 -20 1 0 3 -9 4 -20 4 -30 35 -160 58
-239 11 -38 21 -76 23 -85 2 -9 25 -81 51 -161 26 -80 47 -148 46 -152 -1 -5
2 -8 8 -8 5 0 10 -7 10 -15 0 -13 65 -180 112 -285 75 -170 298 -580 320 -588
4 -2 8 -9 8 -15 1 -18 124 -192 135 -191 6 0 20 16 32 35 13 19 27 39 33 46 5
7 10 15 10 18 0 7 73 75 80 75 4 0 17 18 29 41 13 22 37 55 54 72 28 28 31 29
37 12 5 -13 9 -15 14 -6 4 6 3 17 -3 24 -6 8 -6 18 -1 27 5 8 7 17 4 21 -2 4
3 12 11 19 12 10 16 9 21 -4 5 -13 9 -14 20 -5 8 6 14 16 14 21 0 5 7 17 17
26 15 15 14 17 -8 22 l-24 6 35 32 c19 18 38 32 42 32 4 0 5 9 3 20 -2 11 0
18 5 15 5 -3 16 5 24 17 17 25 21 58 7 58 -5 0 -3 19 4 43 28 90 57 138 128
212 33 35 55 66 52 74 -4 9 1 12 15 8 22 -6 46 25 35 43 -3 6 -1 10 6 10 7 0
10 3 6 6 -9 9 17 55 52 93 22 24 31 43 31 68 0 33 35 90 82 133 9 9 28 43 43
75 47 107 126 257 140 267 5 4 7 8 3 8 -4 0 7 24 25 53 18 28 46 78 63 111 16
32 36 60 44 63 9 2 22 18 29 34 7 17 24 43 38 60 14 16 23 32 20 35 -3 3 7 19
21 36 15 16 39 48 54 71 16 23 41 58 58 77 16 19 29 39 29 43 0 4 7 14 15 22
28 28 54 81 60 120 3 22 5 41 6 43 0 1 8 2 18 2 23 0 43 14 45 31 2 8 6 20 10
26 5 7 5 13 0 13 -4 0 -3 4 3 8 14 10 58 83 61 102 1 8 7 16 12 18 6 2 11 8
11 14 0 9 56 96 69 108 3 3 7 12 9 20 4 17 52 83 64 88 4 2 8 7 8 12 0 4 15
24 34 44 18 20 45 61 60 92 15 30 31 52 36 49 5 -3 17 9 26 27 9 18 20 35 23
38 24 20 70 91 66 102 -3 8 3 22 14 32 11 10 18 23 15 27 -3 5 4 9 16 9 22 0
40 12 68 44 9 11 26 29 38 40 33 33 47 66 46 113 -1 44 -1 44 17 22 l18 -22
21 23 c12 13 22 29 23 34 1 6 2 20 3 30 0 13 12 22 31 27 19 5 37 20 48 41 10
18 42 60 72 93 30 33 55 63 55 67 0 4 27 36 60 70 33 34 60 65 60 70 0 4 4 8
9 8 9 0 131 153 131 165 0 3 14 26 30 50 17 24 30 48 30 54 0 6 3 11 8 11 4 0
18 20 32 45 14 25 27 45 30 45 3 0 13 17 23 38 10 21 33 53 50 72 51 54 107
131 107 146 0 8 4 14 10 14 5 0 25 15 44 33 30 30 32 35 17 45 -15 10 -15 11
2 11 10 1 22 12 27 26 5 14 14 24 19 23 13 -4 60 50 67 77 3 14 10 25 15 25 5
0 9 5 9 11 0 5 15 30 33 54 60 81 137 193 137 199 0 16 152 209 193 245 9 8
17 19 17 24 0 8 17 25 98 96 28 24 56 56 63 72 6 16 15 29 20 29 5 0 9 11 9
25 0 17 15 39 46 67 60 56 94 120 62 114 -7 -1 -23 -7 -35 -14 -11 -6 -45 -14
-75 -18 -47 -5 -136 -35 -163 -55 -5 -3 -26 -10 -45 -14 -19 -4 -39 -11 -45
-15 -10 -8 -16 -10 -33 -10 -5 0 -14 -11 -22 -24 -14 -28 -40 -37 -63 -24 -11
6 -26 4 -44 -5 -16 -8 -43 -17 -61 -20 -18 -4 -48 -19 -67 -33 -19 -15 -35
-23 -35 -20 0 4 -12 -1 -27 -12 -50 -35 -197 -102 -257 -117 -73 -18 -96 -37
-91 -76 5 -38 -2 -37 -12 1 l-8 31 -22 -21 c-26 -24 -36 -25 -52 -6 -11 13
-15 12 -31 -2 -27 -25 -42 -35 -80 -56 -52 -28 -164 -104 -188 -126 -12 -11
-25 -20 -30 -20 -5 0 -17 -9 -27 -20 -10 -12 -25 -18 -32 -16 -7 3 -13 1 -13
-5 0 -6 -4 -8 -9 -4 -5 3 -12 1 -16 -5 -3 -5 -15 -10 -26 -10 -10 0 -19 -5
-19 -11 0 -5 -4 -7 -10 -4 -5 3 -10 3 -10 -2 0 -4 -17 -19 -37 -33 -20 -14
-42 -30 -48 -36 -6 -6 -26 -19 -44 -28 -17 -9 -35 -25 -39 -34 -3 -9 -15 -31
-27 -48 -18 -26 -26 -30 -57 -28 -21 2 -40 -1 -43 -6 -3 -6 -1 -10 6 -10 9 0
9 -4 -1 -15 -9 -11 -16 -12 -31 -2 -16 10 -21 9 -29 -3 -5 -8 -17 -26 -27 -39
-10 -13 -18 -29 -18 -35 0 -7 -28 -11 -77 -12 -75 -2 -80 0 -164 47 -48 27
-91 49 -95 49 -4 0 -9 4 -11 8 -1 4 -31 29 -66 56 -56 43 -79 73 -86 113 -4
21 -57 83 -162 187 -166 164 -194 188 -213 183 -14 -3 -17 2 -15 35 2 44 27
67 94 89 38 13 120 49 246 110 45 21 88 39 95 39 8 0 49 18 92 39 71 36 91 43
152 55 24 5 55 17 115 44 25 11 69 28 98 37 29 9 91 37 138 62 47 25 91 46 97
47 7 2 23 8 37 14 77 34 124 52 136 52 8 0 14 5 14 10 0 6 5 10 11 10 6 0 25
6 42 14 18 8 68 28 112 46 44 17 96 39 115 48 19 9 37 16 40 17 3 0 30 10 60
22 92 37 115 46 125 48 17 4 116 45 170 70 46 21 136 54 160 59 25 5 65 21
123 48 69 31 104 46 112 45 3 0 16 5 29 12 13 7 38 15 55 18 17 3 36 8 41 12
9 7 79 29 114 36 72 15 356 141 371 166 6 9 174 90 194 93 6 1 21 7 33 14 12
7 29 12 37 12 9 0 16 5 16 10 0 5 3 9 8 8 4 -1 44 10 90 26 46 15 91 29 100
31 9 2 28 8 42 13 14 5 30 11 35 12 26 7 43 13 83 31 23 10 49 19 56 19 7 0
19 7 26 15 7 8 20 15 30 15 10 0 23 7 30 15 7 9 15 13 18 11 3 -3 17 3 31 12
38 26 231 118 263 126 15 3 49 20 75 36 30 19 68 32 98 35 27 3 54 10 60 15 6
5 48 20 94 33 l82 24 -43 16 c-77 28 -242 80 -255 80 -7 0 -13 4 -13 8 0 4 -8
6 -17 5 -10 -2 -25 1 -33 5 -14 7 -157 46 -204 55 -11 2 -52 11 -91 19 -82 17
-122 25 -152 30 -12 2 -34 6 -50 9 -15 3 -47 8 -70 11 -23 3 -57 8 -75 10 -18
3 -76 10 -128 15 -52 6 -113 13 -135 16 -42 6 -651 14 -657 9z m-1388 -2675
c0 -5 -4 -10 -9 -10 -6 0 -13 5 -16 10 -3 6 1 10 9 10 9 0 16 -4 16 -10z"/>
<path d="M7203 9164 c-18 -9 -33 -20 -33 -25 0 -5 -6 -9 -14 -9 -8 0 -22 -7
-30 -16 -9 -8 -16 -13 -16 -10 0 3 -24 -21 -52 -52 -29 -31 -55 -59 -58 -62
-3 -3 -16 -29 -29 -57 -14 -29 -28 -53 -32 -53 -4 0 -22 -31 -40 -69 -18 -40
-42 -74 -55 -82 -13 -6 -21 -16 -18 -20 2 -4 -2 -11 -9 -16 -7 -4 -21 -25 -31
-46 -9 -21 -28 -43 -42 -49 -13 -6 -24 -15 -24 -20 0 -4 -6 -8 -13 -8 -7 0
-23 -10 -34 -22 -11 -13 -44 -45 -73 -73 -68 -63 -110 -122 -110 -151 0 -16
-5 -21 -17 -20 -25 4 -90 -44 -105 -76 -7 -16 -16 -28 -20 -28 -5 0 -8 -7 -8
-16 0 -9 -16 -31 -35 -49 -25 -24 -35 -43 -37 -68 -1 -20 -6 -33 -11 -30 -14
9 -68 -57 -65 -80 2 -14 -3 -21 -21 -24 -36 -5 -90 -71 -107 -130 -13 -45 -44
-92 -44 -67 0 5 -7 -4 -16 -21 -48 -91 -78 -151 -79 -156 0 -4 -25 -28 -55
-55 -30 -27 -64 -57 -75 -67 -11 -10 -20 -24 -21 -30 0 -7 -6 -25 -12 -40 -7
-16 -12 -32 -12 -36 0 -4 -20 -25 -45 -47 -24 -21 -45 -43 -45 -49 0 -5 -17
-19 -37 -30 -21 -11 -39 -29 -42 -40 -4 -21 -31 -46 -43 -39 -5 3 -8 1 -8 -5
0 -6 -7 -8 -15 -5 -18 7 -37 -11 -54 -54 -7 -17 -27 -47 -43 -65 -26 -29 -47
-66 -52 -92 -1 -5 -4 -14 -7 -20 -4 -5 -12 -26 -18 -46 -15 -46 -46 -75 -123
-113 -48 -24 -63 -37 -65 -56 -2 -14 -14 -41 -27 -60 -13 -19 -26 -46 -31 -60
-4 -14 -18 -41 -31 -60 -13 -19 -25 -44 -27 -55 -2 -11 -14 -40 -27 -65 -13
-25 -38 -74 -55 -111 -42 -91 -48 -98 -192 -246 -150 -155 -145 -149 -163
-189 -7 -17 -39 -50 -69 -73 -86 -64 -107 -85 -115 -116 -4 -16 -28 -50 -54
-76 -60 -62 -67 -70 -85 -105 -15 -28 -54 -68 -88 -89 -9 -5 -39 -28 -67 -50
-28 -22 -65 -49 -83 -60 -18 -11 -43 -40 -56 -64 -21 -41 -81 -111 -183 -217
-22 -22 -40 -46 -40 -52 0 -7 -4 -12 -9 -12 -5 0 -15 -17 -22 -37 -7 -22 -34
-60 -65 -90 -30 -28 -54 -56 -54 -62 0 -6 -25 -36 -55 -66 -30 -31 -55 -64
-55 -73 -1 -23 -21 -47 -42 -49 -10 0 -27 -1 -37 -2 -11 0 -32 -13 -48 -29
-15 -15 -39 -35 -53 -43 -14 -9 -26 -26 -27 -39 -2 -28 -17 -45 -51 -59 -16
-7 -37 -26 -47 -44 -10 -18 -55 -68 -98 -112 -97 -97 -104 -107 -110 -167 -6
-52 -28 -88 -67 -111 -32 -19 -116 -97 -105 -97 4 0 -2 -8 -13 -19 -12 -10
-22 -23 -22 -30 0 -6 -3 -11 -8 -11 -4 0 -18 -18 -32 -40 -14 -22 -28 -40 -32
-40 -4 0 -10 -10 -13 -22 -4 -11 -18 -31 -32 -44 l-24 -23 21 -11 c11 -6 31
-8 43 -4 26 8 51 11 172 21 114 9 185 8 365 -2 80 -4 150 -7 155 -6 21 2 323
10 395 9 41 0 104 0 140 -1 104 0 261 30 275 54 4 5 14 5 27 -2 14 -7 70 -9
167 -6 83 3 156 1 171 -5 14 -5 48 -11 75 -13 96 -7 150 -16 195 -30 11 -3 77
-15 110 -19 195 -25 701 -41 750 -23 16 5 26 5 28 -2 2 -6 7 -9 12 -6 4 3 34
7 66 10 33 3 77 8 99 12 22 4 45 5 50 3 6 -1 34 -4 62 -6 60 -4 128 -12 128
-15 0 -1 39 -2 88 -3 53 -2 87 2 87 8 0 7 3 7 10 0 6 -6 35 -7 70 -4 33 3 60
2 60 -2 0 -4 12 -8 28 -8 15 0 45 -5 66 -11 22 -6 85 -12 140 -14 56 -2 103
-4 106 -5 3 -1 10 -2 15 -1 6 1 3 -4 -5 -13 -8 -8 -37 -18 -65 -21 -27 -3 -64
-11 -81 -16 -17 -5 -41 -12 -54 -14 -12 -2 -28 -9 -36 -16 -7 -6 -33 -12 -56
-14 -57 -5 -76 -9 -85 -20 -4 -4 -2 -5 5 -1 6 4 12 3 12 -1 0 -5 8 -9 18 -10
9 -1 31 -4 47 -8 17 -3 44 -8 60 -11 17 -3 37 -8 45 -11 8 -3 59 -7 113 -9 53
-2 106 -8 116 -14 11 -5 33 -10 50 -10 16 0 33 -4 36 -10 3 -5 25 -10 48 -10
24 0 52 -7 64 -15 20 -14 24 -14 41 6 18 18 24 19 58 10 39 -11 64 -2 64 24 0
19 25 36 36 25 6 -6 21 1 42 18 30 26 31 29 16 44 -15 15 -15 18 -1 32 9 9 20
16 26 16 12 0 25 -43 18 -62 -2 -7 2 -26 10 -41 13 -26 19 -45 27 -87 2 -11
20 -15 77 -17 41 -1 87 -4 104 -8 16 -3 42 -7 57 -8 15 -1 28 -5 28 -8 0 -3
18 -5 40 -4 22 1 40 -2 40 -6 0 -5 6 -6 14 -3 8 3 24 1 35 -6 18 -9 21 -24 12
-58 -1 -1 -16 4 -33 11 -18 8 -39 12 -46 9 -7 -2 -26 1 -42 6 -16 6 -32 7 -35
3 -2 -5 -23 -5 -45 -1 -22 4 -40 5 -40 1 0 -3 -4 -1 -8 6 -9 15 -56 21 -61 8
-2 -5 54 -24 125 -41 127 -31 194 -53 204 -66 3 -3 14 -8 25 -10 11 -1 22 -5
25 -9 14 -15 125 -58 210 -82 108 -30 205 -59 220 -64 8 -3 20 -7 26 -8 20 -5
249 -75 279 -86 17 -6 36 -11 43 -12 6 0 12 -4 12 -8 0 -6 30 -20 50 -24 3 0
14 -6 25 -11 24 -13 61 -23 118 -31 23 -3 45 -10 49 -17 4 -6 8 -7 8 -2 0 4
11 1 25 -8 14 -9 50 -21 80 -27 30 -5 74 -19 97 -29 41 -18 42 -19 19 -28 -14
-5 -20 -11 -14 -15 17 -11 42 3 49 26 4 12 9 24 13 27 3 3 23 37 43 77 l37 72
-47 6 c-53 8 -242 50 -249 55 -2 2 -11 3 -20 5 -28 3 -53 16 -53 27 0 7 14 8
38 4 20 -4 57 -9 82 -13 25 -3 54 -10 65 -16 11 -6 34 -12 50 -14 17 -1 54 -7
84 -13 30 -5 57 -8 60 -5 15 9 120 239 128 280 2 10 7 22 12 25 5 3 11 16 15
30 4 14 13 41 21 60 13 34 27 70 30 80 1 3 4 12 7 20 26 70 40 113 44 136 3
16 10 34 16 41 6 7 7 13 3 13 -4 0 -2 7 5 15 7 8 9 15 5 15 -4 0 -2 7 5 15 7
8 10 15 7 15 -3 0 -1 15 4 33 6 17 12 39 14 47 2 8 10 40 18 70 15 55 53 224
62 270 3 14 7 36 10 50 2 14 7 41 10 60 3 19 7 46 10 60 8 42 14 82 21 145 18
161 27 264 28 313 0 23 3 42 6 42 8 0 5 440 -4 565 -10 134 -14 180 -21 225
-3 19 -7 60 -10 90 -2 30 -7 66 -10 80 -3 14 -8 39 -10 55 -5 45 -15 107 -22
135 -3 14 -7 34 -8 45 -1 11 -12 59 -23 107 -12 48 -24 98 -26 110 -3 13 -13
53 -24 90 -11 37 -17 70 -14 73 3 3 1 5 -4 5 -5 0 -11 8 -12 18 -2 21 -10 57
-12 57 -1 0 -3 7 -5 15 -7 40 -131 380 -165 456 -13 27 -34 74 -48 104 -46
102 -116 245 -149 303 -17 31 -29 57 -25 57 4 0 2 4 -4 8 -12 8 -84 129 -84
142 0 4 -4 10 -8 12 -4 2 -26 32 -47 68 -50 83 -163 247 -205 297 -5 7 -10 16
-10 22 0 5 -3 11 -7 13 -5 2 -35 37 -67 78 -33 41 -68 84 -77 95 -231 271
-447 483 -694 683 -26 21 -199 150 -230 172 -20 14 -42 31 -50 38 -7 6 -18 12
-24 12 -6 0 -11 5 -11 11 0 5 -4 8 -9 5 -5 -3 -11 1 -15 9 -3 8 -10 15 -17 15
-6 0 -36 17 -67 39 -47 32 -280 172 -285 171 -1 0 -17 -8 -34 -16z m-206 -301
c-4 -3 -2 -12 4 -20 9 -10 8 -13 -3 -13 -22 0 -29 12 -17 27 6 7 14 13 17 13
3 0 2 -3 -1 -7z m-57 -123 c0 -5 -4 -10 -10 -10 -5 0 -10 5 -10 10 0 6 5 10
10 10 6 0 10 -4 10 -10z m-200 -210 c0 -5 -5 -10 -11 -10 -5 0 -7 5 -4 10 3 6
8 10 11 10 2 0 4 -4 4 -10z m-107 -105 c-3 -9 -8 -14 -10 -11 -3 3 -2 9 2 15
9 16 15 13 8 -4z m-165 -184 c-7 -11 -19 -21 -26 -21 -9 0 -9 7 4 31 10 21 19
28 26 21 6 -6 5 -17 -4 -31z m-918 -1731 c0 -5 -5 -10 -11 -10 -5 0 -7 5 -4
10 3 6 8 10 11 10 2 0 4 -4 4 -10z m-1050 -2670 c0 -5 -2 -10 -4 -10 -3 0 -8
5 -11 10 -3 6 -1 10 4 10 6 0 11 -4 11 -10z m4083 -185 c-4 -14 -33 -14 -33 0
0 7 8 12 18 11 9 -2 16 -7 15 -11z m-1218 -54 c-3 -6 -11 -8 -17 -5 -6 4 -5 9
3 15 16 10 23 4 14 -10z m107 -186 c6 -7 -42 -45 -57 -45 -11 0 -4 25 11 41
17 19 34 21 46 4z m398 -231 c0 2 16 0 36 -6 20 -5 45 -12 55 -14 11 -2 28 -6
39 -8 11 -3 26 -8 32 -12 11 -7 93 -23 136 -26 6 -1 12 -5 12 -10 0 -5 4 -7 8
-4 5 3 35 -8 68 -23 32 -16 75 -31 94 -34 98 -14 117 -35 28 -32 -61 3 -65 4
-133 35 -27 12 -56 23 -62 23 -7 0 -13 3 -13 7 0 7 -18 10 -107 24 -12 2 -39
11 -59 21 -21 10 -62 18 -93 18 -58 1 -74 9 -79 40 -3 16 0 17 17 7 12 -6 21
-9 21 -6z m660 -183 c4 -8 20 -15 36 -17 15 -2 31 -7 36 -12 12 -12 -79 3
-114 19 -16 7 -28 16 -28 21 0 14 60 4 70 -11z m210 -35 c8 -1 22 -5 30 -9 8
-4 25 -8 37 -10 12 -2 25 -6 29 -9 3 -4 13 -4 22 -1 11 3 13 2 5 -4 -21 -15
-97 -6 -143 17 -25 13 -47 22 -50 21 -2 -1 -6 2 -8 8 -2 7 7 7 30 0 18 -6 40
-12 48 -13z"/>
<path d="M3430 7300 c-12 -7 -12 -12 -3 -21 10 -10 14 -9 19 5 8 22 2 27 -16
16z"/>
<path d="M3140 7143 c-13 -3 -41 -19 -62 -37 -21 -18 -56 -41 -78 -52 -41 -20
-48 -32 -29 -51 12 -12 42 2 83 39 11 10 29 19 40 19 37 2 41 4 66 30 52 53
55 59 29 58 -13 -1 -35 -4 -49 -6z"/>
<path d="M4815 6280 c-3 -5 -1 -10 4 -10 6 0 11 5 11 10 0 6 -2 10 -4 10 -3 0
-8 -4 -11 -10z"/>
<path d="M4660 6146 c0 -8 -11 -27 -25 -42 -32 -35 -25 -42 17 -17 34 20 46
62 21 71 -7 2 -13 -3 -13 -12z"/>
<path d="M4537 5963 c-4 -3 -7 -11 -7 -17 0 -6 5 -5 12 2 6 6 9 14 7 17 -3 3
-9 2 -12 -2z"/>
<path d="M6557 3498 c-9 -6 -8 -10 3 -18 26 -17 50 -5 50 25 0 7 -40 1 -53 -7z"/>
<path d="M6476 3491 c-11 -4 -15 -10 -10 -14 14 -8 38 -4 42 8 5 13 -9 15 -32
6z"/>
<path d="M5255 3060 c9 -15 -30 -22 -155 -26 -223 -8 -259 -11 -273 -22 -10
-8 -24 -8 -53 0 -46 13 -73 11 -94 -7 -28 -25 -70 -36 -91 -24 -19 10 -128 14
-159 6 -8 -2 -28 -10 -45 -17 -16 -8 -37 -15 -45 -16 -8 -1 -42 -9 -75 -19
-33 -10 -60 -16 -61 -14 0 2 -8 -2 -17 -10 -10 -7 -17 -11 -17 -8 0 2 -30 -4
-67 -15 -38 -10 -99 -25 -138 -32 -118 -23 -224 -50 -285 -74 -8 -3 -17 -6
-20 -6 -3 -1 -36 -17 -75 -35 -186 -89 -228 -107 -275 -116 -12 -2 -28 -9 -36
-16 -8 -6 -14 -8 -14 -4 0 3 -12 -3 -26 -14 -15 -12 -32 -21 -40 -21 -7 0 -33
-16 -58 -35 -26 -19 -54 -35 -65 -35 -10 0 -30 -11 -45 -25 -15 -14 -37 -27
-49 -30 -12 -3 -42 -24 -66 -46 -24 -22 -45 -38 -48 -35 -3 3 -23 -4 -44 -14
-21 -11 -43 -20 -48 -20 -5 0 -23 -13 -39 -30 -17 -17 -40 -30 -52 -30 -11 0
-44 -12 -73 -27 -29 -15 -54 -28 -57 -28 -43 -11 -60 -19 -60 -26 0 -5 -4 -9
-10 -9 -15 0 -123 -51 -145 -69 -11 -9 -22 -25 -23 -36 -5 -27 -23 -47 -37
-41 -17 6 -75 -30 -75 -47 0 -25 -61 -50 -134 -53 -69 -4 -71 -4 -107 -46 -35
-41 -38 -42 -67 -32 -27 10 -32 9 -58 -21 -22 -26 -33 -31 -46 -24 -20 11
-113 -6 -145 -27 -13 -8 -23 -12 -23 -10 0 4 -24 -15 -77 -61 -14 -13 -32 -23
-39 -23 -7 0 -18 -9 -24 -21 -10 -18 1 -32 103 -132 109 -107 221 -209 276
-252 14 -11 31 -25 36 -31 6 -6 51 -42 100 -80 50 -38 92 -72 93 -76 2 -5 8
-8 13 -8 5 0 35 -20 66 -44 31 -25 60 -43 65 -40 4 3 8 1 8 -4 0 -17 368 -242
478 -293 29 -13 52 -27 52 -31 0 -5 4 -8 9 -8 5 0 58 -23 117 -51 128 -59 152
-70 219 -97 186 -74 342 -131 382 -138 14 -3 36 -10 47 -16 12 -6 23 -11 26
-11 3 0 10 -1 15 -3 23 -8 332 -86 350 -88 11 -2 34 -6 50 -9 47 -10 87 -18
120 -23 17 -2 53 -8 80 -13 28 -5 73 -12 100 -15 28 -4 64 -9 80 -11 154 -21
309 -29 570 -29 276 -1 409 6 585 30 62 8 94 12 155 19 33 4 64 10 69 13 5 3
28 7 50 8 23 1 41 3 41 4 0 2 34 9 67 14 15 3 35 7 45 10 10 3 29 7 43 10 14
2 95 23 180 46 85 23 163 42 173 43 9 1 17 4 17 8 0 4 14 9 31 13 36 7 217 70
266 92 17 8 36 14 42 14 6 0 26 9 46 20 19 11 36 19 38 17 12 -11 481 222 599
299 21 13 40 24 43 24 3 0 53 31 111 70 59 38 110 70 115 70 5 0 9 4 9 8 0 4
15 16 33 27 17 10 37 24 44 29 32 28 43 36 47 36 6 0 25 15 81 63 18 15 38 27
44 27 6 0 11 4 11 8 0 4 21 24 48 45 26 20 59 46 73 59 15 13 48 41 74 63 61
51 385 371 385 381 0 3 10 16 23 28 21 19 116 129 142 164 6 7 18 21 28 30 9
9 17 19 17 23 0 8 -151 82 -220 108 -30 12 -65 19 -77 17 -12 -3 -27 2 -34 10
-16 19 -126 97 -169 119 -90 46 -110 55 -120 55 -6 0 -29 12 -53 27 -44 28
-46 29 -89 31 -16 1 -29 9 -32 20 -3 10 -33 28 -68 42 -73 29 -86 31 -94 18
-4 -6 -16 1 -28 16 -11 14 -32 27 -46 29 -14 2 -33 7 -42 11 -9 4 -22 9 -30
10 -7 2 -26 9 -43 16 -16 7 -37 14 -46 14 -9 1 -26 10 -38 20 -12 11 -21 14
-21 8 0 -17 -55 -15 -70 2 -17 22 -89 53 -135 60 -22 3 -65 19 -96 35 -32 16
-60 27 -63 24 -3 -4 -6 0 -6 7 0 7 -3 10 -7 7 -3 -4 -16 -1 -27 7 -36 23 -287
104 -396 127 -30 6 -64 15 -75 20 -11 4 -34 10 -52 13 -17 2 -35 6 -40 9 -12
7 -104 20 -133 18 -13 -1 -29 -6 -34 -11 -14 -14 -54 -12 -63 3 -17 27 -72 57
-106 57 -20 0 -47 4 -62 10 -38 14 -74 21 -130 25 -27 2 -63 8 -79 14 -16 7
-54 14 -85 17 -31 3 -64 7 -73 8 -9 1 -25 9 -35 18 -33 27 -57 32 -198 34 -77
1 -164 4 -193 7 -29 3 -50 2 -47 -3z m375 -80 c-18 -12 -43 -13 -36 -2 2 4 15
8 28 9 18 2 19 0 8 -7z m1821 -502 c0 -13 2 -31 4 -40 2 -13 -3 -18 -21 -18
-24 0 -32 14 -14 25 6 3 10 17 10 31 0 30 20 32 21 2z m-2 -107 c8 -15 7 -20
-8 -24 -34 -9 -56 17 -29 34 19 13 26 11 37 -10z"/>
<path d="M9030 2671 c0 -5 15 -14 33 -20 l32 -11 -24 20 c-25 21 -41 26 -41
11z"/>
</g>
</svg>
